<?xml version="1.0" encoding="UTF-8"?>
<svg version="1.1" xmlns="http://www.w3.org/2000/svg" width="500" height="500">
<path d="M0 0 C0.77923325 -0.0049649 1.55846649 -0.00992981 2.36131287 -0.01504517 C4.94107953 -0.02965782 7.52078467 -0.03646802 10.10058594 -0.04199219 C11.89556886 -0.04774529 13.69055177 -0.053503 15.48553467 -0.05926514 C19.25158982 -0.0697732 23.01762365 -0.07561684 26.78369141 -0.07910156 C31.59998912 -0.08457959 36.41600318 -0.10859359 41.23221207 -0.13707352 C44.94178072 -0.15573694 48.65128162 -0.16090751 52.36089325 -0.16243744 C54.13583676 -0.16545718 55.91077928 -0.17346273 57.68567657 -0.18662262 C60.17478214 -0.20375743 62.66320246 -0.20178472 65.15234375 -0.1953125 C65.8798735 -0.20452728 66.60740326 -0.21374207 67.35697937 -0.22323608 C73.03415621 -0.17720301 77.40623967 1.11795326 82.07983398 4.37841797 C84.09122856 7.23529468 85.20622036 10.43343847 86.41699219 13.68457031 C86.70786209 14.44575668 86.99873199 15.20694305 87.29841614 15.99119568 C88.25606691 18.5032276 89.20200567 21.01948804 90.14746094 23.53613281 C90.8120513 25.289864 91.47726138 27.04336046 92.14306641 28.79663086 C93.52261603 32.43245844 94.89752323 36.07000068 96.27001953 39.70849609 C97.92866089 44.09847807 99.60832266 48.47993313 101.29978943 52.85736084 C102.55920307 56.11727376 103.81183199 59.37977173 105.06356812 62.64263916 C105.64990038 64.16734659 106.23868959 65.69111204 106.83023071 67.21380615 C111.0294356 78.03750277 114.41619012 88.92438084 117.33496094 100.16113281 C117.51687579 100.81888451 117.69879065 101.4766362 117.88621807 102.15431976 C118.66274289 105.62699923 118.50022338 109.17852307 118.51196289 112.72167969 C118.51853409 113.5839064 118.52510529 114.44613312 118.53187561 115.33448792 C118.55156091 118.1829538 118.56325748 121.0313672 118.57324219 123.87988281 C118.57731771 124.85311996 118.58139324 125.82635712 118.58559227 126.8290863 C118.60642763 131.97541083 118.62074314 137.12170886 118.63012695 142.26806641 C118.64121635 147.58802477 118.67565252 152.90756775 118.71529865 158.22737885 C118.74140311 162.31598707 118.74981304 166.40449508 118.75340843 170.49317932 C118.75828644 172.45482708 118.76993481 174.41647002 118.78844643 176.3780365 C118.81271797 179.11922574 118.81189554 181.85932281 118.80493164 184.60058594 C118.82414673 185.81791161 118.82414673 185.81791161 118.84375 187.05982971 C118.81060885 190.63260939 118.65834804 192.72701733 116.49308777 195.63366699 C114.33496094 197.16113281 114.33496094 197.16113281 111.33496094 198.16113281 C110.86058594 198.96550781 110.38621094 199.76988281 109.89746094 200.59863281 C108.15355795 203.45863371 107.23840885 203.75340049 104.33496094 205.16113281 C102.9966879 206.82383568 101.66306308 208.49029463 100.33496094 210.16113281 C97.47674693 211.11387082 95.65188546 211.29778464 92.68334961 211.32226562 C91.74194626 211.33187317 90.80054291 211.34148071 89.83061218 211.35137939 C88.30715935 211.35775421 88.30715935 211.35775421 86.75292969 211.36425781 C85.70599442 211.36995789 84.65905914 211.37565796 83.58039856 211.38153076 C81.36374929 211.39098048 79.14708598 211.39751463 76.93041992 211.40136719 C73.54613604 211.41106497 70.16246145 211.44208594 66.77832031 211.47363281 C64.62402704 211.4801638 62.46972943 211.48541389 60.31542969 211.48925781 C59.30586716 211.50160461 58.29630463 211.51395142 57.25614929 211.52667236 C51.97085193 211.50999094 47.70834889 211.48681655 43.33496094 208.16113281 C40.82670071 203.34322414 41.07305294 198.34774055 41.13964844 193.04394531 C41.14247833 192.18678925 41.14530823 191.32963318 41.14822388 190.44650269 C41.15936095 187.72623349 41.18445334 185.00630141 41.20996094 182.28613281 C41.21999911 180.43457509 41.2291235 178.58301217 41.23730469 176.73144531 C41.25757203 172.20777549 41.29673252 167.68482862 41.33496094 163.16113281 C30.77496094 163.16113281 20.21496094 163.16113281 9.33496094 163.16113281 C9.41367676 170.74441122 9.41367676 170.74441122 9.51513672 178.32739258 C9.58247709 191.22959001 9.58247709 191.22959001 5.89746094 196.03613281 C4.33496094 197.16113281 4.33496094 197.16113281 1.33496094 198.16113281 C0.86058594 198.96550781 0.38621094 199.76988281 -0.10253906 200.59863281 C-1.84644205 203.45863371 -2.76159115 203.75340049 -5.66503906 205.16113281 C-7.0033121 206.82383568 -8.33693692 208.49029463 -9.66503906 210.16113281 C-12.50222405 211.10686114 -14.29742744 211.29755257 -17.24072266 211.32226562 C-18.16533295 211.33187317 -19.08994324 211.34148071 -20.04257202 211.35137939 C-21.03947052 211.35562927 -22.03636902 211.35987915 -23.06347656 211.36425781 C-24.09058746 211.36995789 -25.11769836 211.37565796 -26.17593384 211.38153076 C-28.34970062 211.39097914 -30.52348172 211.3975141 -32.69726562 211.40136719 C-36.02011117 211.41107459 -39.34233866 211.44210066 -42.66503906 211.47363281 C-44.77701456 211.48016282 -46.88899447 211.4854133 -49.00097656 211.48925781 C-49.9938266 211.50160461 -50.98667664 211.51395142 -52.00961304 211.52667236 C-61.01853027 211.49762926 -61.01853027 211.49762926 -64.66503906 208.16113281 C-66.81184334 203.99139087 -66.91820239 200.39504591 -66.92382812 195.74731445 C-66.92733276 195.01804749 -66.9308374 194.28878052 -66.93444824 193.53741455 C-66.94323132 191.13194173 -66.93742305 188.72676479 -66.93066406 186.32128906 C-66.932013 184.63561446 -66.93395544 182.94994024 -66.9364624 181.26426697 C-66.93941014 177.7278168 -66.93513215 174.1914677 -66.92578125 170.6550293 C-66.91446569 166.16012661 -66.92089785 161.6654649 -66.93292618 157.17057133 C-66.94022192 153.68460848 -66.93782051 150.19870082 -66.93267059 146.71273613 C-66.93135118 145.05802824 -66.93292072 143.40331507 -66.9376297 141.74861336 C-66.96672682 128.63505407 -66.13739534 115.90649597 -62.47753906 103.22363281 C-62.23471191 102.37849121 -61.99188477 101.53334961 -61.74169922 100.66259766 C-57.51989285 86.70552106 -51.91053867 73.17305836 -46.57937622 59.61250305 C-44.40065951 54.06504227 -42.26623106 48.50253259 -40.16113281 42.92675781 C-39.35498012 40.80201683 -38.54811745 38.67754687 -37.74102783 36.55316162 C-37.23731114 35.22241371 -36.73639368 33.89060241 -36.23846436 32.55767822 C-35.55179434 30.72182011 -34.85283031 28.89057454 -34.15332031 27.05957031 C-33.76700439 26.03524902 -33.38068848 25.01092773 -32.98266602 23.95556641 C-29.98636389 17.60098532 -24.52846992 12.00269096 -18.66503906 8.16113281 C-18.00503906 8.16113281 -17.34503906 8.16113281 -16.66503906 8.16113281 C-16.41753906 7.56300781 -16.17003906 6.96488281 -15.91503906 6.34863281 C-12.33063428 0.07592444 -6.54999818 0.00995338 0 0 Z M21.33496094 68.16113281 C19.08535557 74.02496903 17.05005634 79.92617837 15.14746094 85.91113281 C14.87482422 86.74773437 14.6021875 87.58433594 14.32128906 88.44628906 C13.93553711 89.65865234 13.93553711 89.65865234 13.54199219 90.89550781 C13.30971924 91.61963867 13.07744629 92.34376953 12.83813477 93.08984375 C12.17758612 95.45370302 12.17758612 95.45370302 12.33496094 99.16113281 C19.26496094 99.16113281 26.19496094 99.16113281 33.33496094 99.16113281 C34.56789104 95.4623425 33.93946629 94.17156392 32.75292969 90.50488281 C32.22022461 88.84779297 32.22022461 88.84779297 31.67675781 87.15722656 C31.29583984 86.00351563 30.91492188 84.84980469 30.52246094 83.66113281 C30.15314453 82.50742188 29.78382813 81.35371094 29.40332031 80.16503906 C27.43402975 73.89976375 27.43402975 73.89976375 24.33496094 68.16113281 C23.34496094 68.16113281 22.35496094 68.16113281 21.33496094 68.16113281 Z " fill="#7643E5" transform="translate(134.6650390625,143.8388671875)"/>
<path d="M0 0 C0.96457626 -0.00630432 1.92915253 -0.01260864 2.92295837 -0.019104 C3.95844315 -0.01505554 4.99392792 -0.01100708 6.06079102 -0.00683594 C7.13087906 -0.00874939 8.2009671 -0.01066284 9.30348206 -0.01263428 C11.56544225 -0.01399463 13.82741029 -0.01030868 16.08935547 -0.00195312 C19.54811192 0.0087378 23.00634772 -0.00184832 26.46508789 -0.01464844 C28.66365674 -0.01332661 30.86222527 -0.01076374 33.06079102 -0.00683594 C34.09425156 -0.0108844 35.1277121 -0.01493286 36.19248962 -0.019104 C37.16021805 -0.01279968 38.12794647 -0.00649536 39.125 0 C40.39596779 0.00238678 40.39596779 0.00238678 41.69261169 0.00482178 C44.58140984 0.3061709 46.57024572 0.86306964 49.12719727 2.25878906 C51.83859018 5.95429486 52.5003708 8.55288374 52.48796082 13.09907532 C52.49208481 14.2671019 52.4962088 15.43512848 52.50045776 16.6385498 C52.48967194 17.91097534 52.47888611 19.18340088 52.46777344 20.49438477 C52.46692675 21.85471071 52.46740311 23.21503802 52.46910095 24.57536316 C52.46996073 28.26102055 52.452338 31.94638428 52.43137908 35.63197351 C52.4126093 39.48633852 52.4108616 43.34071047 52.40730286 47.19511414 C52.39798327 54.49070172 52.37337069 61.78615424 52.34325439 69.08168238 C52.30970767 77.38875543 52.29322369 85.69583496 52.27816808 94.00295889 C52.24682102 111.08831591 52.19345704 128.17353304 52.12719727 145.25878906 C59.05719727 144.92878906 65.98719727 144.59878906 73.12719727 144.25878906 C73.15297852 141.86242187 73.17875977 139.46605469 73.20532227 136.99707031 C73.24377492 134.66695592 73.28892446 132.33706042 73.3347168 130.00708008 C73.36287912 128.39227817 73.38411727 126.77733964 73.39819336 125.16235352 C73.41968985 122.83571669 73.46636937 120.51071429 73.51782227 118.18457031 C73.5190509 117.46666824 73.52027954 116.74876617 73.52154541 116.0091095 C73.66153477 111.17922643 74.63891148 108.61355005 78.12719727 105.25878906 C79.11719727 104.92878906 80.10719727 104.59878906 81.12719727 104.25878906 C81.58094727 103.43378906 82.03469727 102.60878906 82.50219727 101.75878906 C84.12719727 99.25878906 84.12719727 99.25878906 86.81469727 98.44628906 C87.57782227 98.38441406 88.34094727 98.32253906 89.12719727 98.25878906 C89.20969727 97.66066406 89.29219727 97.06253906 89.37719727 96.44628906 C90.36307855 93.570802 91.56018423 92.84046692 94.12719727 91.25878906 C96.39683533 90.87783813 96.39683533 90.87783813 98.90820312 90.87060547 C99.85275864 90.86114899 100.79731415 90.8516925 101.77049255 90.84194946 C103.29090904 90.8510585 103.29090904 90.8510585 104.84204102 90.86035156 C105.88993301 90.85748138 106.93782501 90.85461121 108.01747131 90.85165405 C110.23235617 90.84961368 112.44725905 90.85514162 114.66210938 90.86767578 C118.04866974 90.88371316 121.43403368 90.86783386 124.82055664 90.84863281 C126.97355406 90.85061556 129.12655074 90.8544599 131.27954102 90.86035156 C132.29112778 90.85427887 133.30271454 90.84820618 134.34495544 90.84194946 C143.20714863 90.93037881 143.20714863 90.93037881 147.12719727 94.25878906 C151.40476479 102.81392411 149.27489716 116.12293909 149.26000977 125.60253906 C149.26068586 127.14465347 149.2616584 128.68676778 149.26290894 130.22888184 C149.26437157 133.43921945 149.26227801 136.64952897 149.25756836 139.85986328 C149.25187197 143.9375609 149.25515874 148.01519266 149.26114082 152.09288788 C149.26478548 155.27081787 149.26359008 158.44873271 149.26101303 161.62666321 C149.26035452 163.12868762 149.26113371 164.6307135 149.26349258 166.13273621 C149.26926976 170.84295856 149.22195172 175.54925922 149.12719727 180.25878906 C149.09961334 182.12216919 149.09961334 182.12216919 149.07147217 184.02319336 C149.0021347 185.759198 149.0021347 185.759198 148.93139648 187.53027344 C148.89779022 188.54295288 148.86418396 189.55563232 148.82955933 190.59899902 C147.88223153 194.18645511 146.16319339 195.24896963 143.12719727 197.25878906 C142.46719727 197.58878906 141.80719727 197.91878906 141.12719727 198.25878906 C140.67344727 199.06316406 140.21969727 199.86753906 139.75219727 200.69628906 C137.98209235 203.48760835 136.98883562 203.87412534 134.12719727 205.25878906 C133.81782227 205.91878906 133.50844727 206.57878906 133.18969727 207.25878906 C131.68517643 210.09082829 130.1478889 210.30158589 127.12719727 211.25878906 C124.26419926 211.51326466 124.26419926 211.51326466 121.0615387 211.51948547 C119.23415665 211.53011269 119.23415665 211.53011269 117.36985779 211.54095459 C116.02798425 211.53866099 114.68611106 211.53615133 113.34423828 211.53344727 C111.92467989 211.53779662 110.50512385 211.54298052 109.08557129 211.54893494 C105.2363872 211.56231187 101.38730138 211.56290509 97.53809857 211.56037164 C94.32239046 211.55930108 91.10670217 211.56418744 87.8909983 211.56897706 C80.30361918 211.58006764 72.71628956 211.58051212 65.12890625 211.57446289 C57.30641042 211.56842204 49.48409441 211.58073791 41.66162926 211.60203296 C34.94045954 211.61965591 28.21934703 211.62564924 21.49815506 211.62239522 C17.48610699 211.62058338 13.47418722 211.62320854 9.46216011 211.63710976 C5.68887387 211.64969491 1.91586775 211.64773768 -1.85741425 211.63469887 C-3.24008593 211.63233505 -4.62277738 211.63506084 -6.00542641 211.64332199 C-7.89697851 211.65380655 -9.78861057 211.64387664 -11.68016052 211.63301086 C-13.26604304 211.63326248 -13.26604304 211.63326248 -14.88396358 211.63351917 C-18.41579562 211.19071053 -20.83049364 210.08000724 -23.87280273 208.25878906 C-25.36992949 205.26453554 -25.02081125 202.19206654 -25.01997375 198.9079895 C-25.02365044 198.14139507 -25.02732713 197.37480064 -25.03111523 196.58497608 C-25.04217562 194.00244482 -25.04599986 191.41995377 -25.04980469 188.83740234 C-25.05606747 186.99140291 -25.0627141 185.14540474 -25.06971741 183.29940796 C-25.0871422 178.27462907 -25.09768279 173.24985971 -25.10592294 168.22505808 C-25.11106901 165.08822749 -25.11714486 161.95139987 -25.12343407 158.81457138 C-25.14248862 149.00723645 -25.15672028 139.19990906 -25.16504604 129.39255917 C-25.17482625 118.05808957 -25.20116512 106.72381485 -25.24154693 95.38941395 C-25.27166397 86.63694022 -25.28651063 77.8845225 -25.28982705 69.13199794 C-25.29218222 63.90038153 -25.30120331 58.66897326 -25.32628822 53.43741226 C-25.34949744 48.51754105 -25.35383111 43.59801608 -25.34352684 38.6781044 C-25.34302965 36.87048189 -25.34940369 35.06284274 -25.36308289 33.25527191 C-25.38069169 30.79094717 -25.37375101 28.32787997 -25.36054993 25.86355591 C-25.37151917 25.14507323 -25.38248842 24.42659056 -25.39379007 23.68633568 C-25.34994902 20.30607658 -25.0725781 18.52710582 -23.02981853 15.78349113 C-20.87280273 14.25878906 -20.87280273 14.25878906 -17.87280273 14.25878906 C-17.62530273 13.47503906 -17.37780273 12.69128906 -17.12280273 11.88378906 C-15.64956511 8.78999004 -14.83136543 8.6932437 -11.87280273 7.25878906 C-11.37780273 6.43378906 -10.88280273 5.60878906 -10.37280273 4.75878906 C-7.82441548 0.51147698 -4.75198499 0.00893225 0 0 Z " fill="#7643E6" transform="translate(296.872802734375,143.7412109375)"/>
<path d="M0 0 C0.00238835 0.96190435 0.00477671 1.92380871 0.00723743 2.91486168 C0.0659605 26.29054464 0.14179843 49.66612394 0.23571491 73.04169273 C0.28073305 84.34581955 0.3201337 95.64991443 0.34643555 106.95410156 C0.36936702 116.80368124 0.40271033 126.65316038 0.44870156 136.50266039 C0.47269946 141.72075636 0.49138508 146.93875236 0.49761391 152.15690231 C0.5036352 157.0636233 0.52352704 161.97008826 0.55427551 166.87671471 C0.56310341 168.68192077 0.56676858 170.48716022 0.56500816 172.29238701 C0.56336849 174.74864095 0.57994125 177.20410211 0.60127258 179.6602478 C0.59642501 180.38202945 0.59157743 181.1038111 0.58658296 181.84746492 C0.58297993 184.03642374 0.58297993 184.03642374 1 187 C4.46911972 189.31274648 5.80934594 189.25738719 9.90348816 189.2784729 C11.13607864 189.28963638 12.36866913 189.30079987 13.63861084 189.31230164 C15.00671356 189.31466666 16.37481662 189.3168423 17.74291992 189.31884766 C19.18177353 189.32814454 20.62062173 189.33831285 22.0594635 189.34928894 C25.96824062 189.37663016 29.87698162 189.3917505 33.78582931 189.40471697 C37.86981976 189.42032952 41.95373624 189.44712569 46.03767395 189.4727478 C53.77239353 189.51956887 61.50712696 189.55629684 69.241916 189.58942068 C78.04718411 189.62761858 86.85237801 189.67703482 95.65758359 189.72740483 C113.7716681 189.83077417 131.88579789 189.92001828 150 190 C149.8125 192.375 149.8125 192.375 149 195 C145.39558268 197.13981721 142.05931564 197.2526841 137.93434143 197.26069641 C136.10695938 197.27132362 136.10695938 197.27132362 134.24266052 197.28216553 C132.90078698 197.27987193 131.55891379 197.27736226 130.21704102 197.2746582 C128.79748263 197.27900756 127.37792659 197.28419146 125.95837402 197.29014587 C122.10918993 197.30352281 118.26010411 197.30411603 114.41090131 197.30158257 C111.1951932 197.30051202 107.9795049 197.30539838 104.76380104 197.310188 C97.17642191 197.32127857 89.58909229 197.32172306 82.00170898 197.31567383 C74.17921316 197.30963297 66.35689715 197.32194885 58.53443199 197.3432439 C51.81326228 197.36086685 45.09214976 197.36686018 38.37095779 197.36360615 C34.35890973 197.36179432 30.34698995 197.36441948 26.33496284 197.37832069 C22.56167661 197.39090584 18.78867048 197.38894862 15.01538849 197.37590981 C13.6327168 197.37354599 12.25002536 197.37627178 10.86737633 197.38453293 C8.97582422 197.39501748 7.08419216 197.38508758 5.19264221 197.3742218 C3.6067597 197.37447341 3.6067597 197.37447341 1.98883915 197.37473011 C-1.54299289 196.93192147 -3.9576909 195.82121818 -7 194 C-8.49712676 191.00574648 -8.14800851 187.93327747 -8.14717102 184.64920044 C-8.15084771 183.88260601 -8.1545244 183.11601158 -8.1583125 182.32618701 C-8.16937288 179.74365576 -8.17319713 177.1611647 -8.17700195 174.57861328 C-8.18326473 172.73261384 -8.18991136 170.88661567 -8.19691467 169.0406189 C-8.21433947 164.01584001 -8.22488005 158.99107064 -8.2331202 153.96626902 C-8.23826628 150.82943842 -8.24434213 147.69261081 -8.25063133 144.55578232 C-8.26968589 134.74844738 -8.28391754 124.94112 -8.2922433 115.13377011 C-8.30202351 103.7993005 -8.32836239 92.46502579 -8.36874419 81.13062489 C-8.39886123 72.37815116 -8.4137079 63.62573344 -8.41702431 54.87320888 C-8.41937948 49.64159247 -8.42840058 44.4101842 -8.45348549 39.1786232 C-8.4766947 34.25875199 -8.48102838 29.33922702 -8.47072411 24.41931534 C-8.47022692 22.61169282 -8.47660095 20.80405367 -8.49028015 18.99648285 C-8.50788895 16.5321581 -8.50094827 14.06909091 -8.48774719 11.60476685 C-8.49871644 10.88628417 -8.50968568 10.1678015 -8.52098733 9.42754662 C-8.47770501 6.09036676 -8.18920897 4.26304561 -6.2195158 1.52470207 C-4 0 -4 0 0 0 Z " fill="#F111F3" transform="translate(280,158)"/>
<path d="M0 0 C1.16884987 -0.00744736 1.16884987 -0.00744736 2.36131287 -0.01504517 C4.94107953 -0.02965782 7.52078467 -0.03646802 10.10058594 -0.04199219 C11.89556886 -0.04774529 13.69055177 -0.053503 15.48553467 -0.05926514 C19.25158982 -0.0697732 23.01762365 -0.07561684 26.78369141 -0.07910156 C31.59998912 -0.08457959 36.41600318 -0.10859359 41.23221207 -0.13707352 C44.94178072 -0.15573694 48.65128162 -0.16090751 52.36089325 -0.16243744 C54.13583676 -0.16545718 55.91077928 -0.17346273 57.68567657 -0.18662262 C60.17478214 -0.20375743 62.66320246 -0.20178472 65.15234375 -0.1953125 C65.8798735 -0.20452728 66.60740326 -0.21374207 67.35697937 -0.22323608 C73.03415621 -0.17720301 77.40623967 1.11795326 82.07983398 4.37841797 C84.09122856 7.23529468 85.20622036 10.43343847 86.41699219 13.68457031 C86.70786209 14.44575668 86.99873199 15.20694305 87.29841614 15.99119568 C88.25606691 18.5032276 89.20200567 21.01948804 90.14746094 23.53613281 C90.8120513 25.289864 91.47726138 27.04336046 92.14306641 28.79663086 C93.52261603 32.43245844 94.89752323 36.07000068 96.27001953 39.70849609 C97.92866089 44.09847807 99.60832266 48.47993313 101.29978943 52.85736084 C102.55920307 56.11727376 103.81183199 59.37977173 105.06356812 62.64263916 C105.64990038 64.16734659 106.23868959 65.69111204 106.83023071 67.21380615 C111.0294356 78.03750277 114.41619012 88.92438084 117.33496094 100.16113281 C117.51701458 100.81874572 117.69906822 101.47635862 117.88663864 102.15389919 C118.66347565 105.63196255 118.49121568 109.18928222 118.49609375 112.73754883 C118.50105865 113.60138184 118.50602356 114.46521484 118.51113892 115.35522461 C118.52572738 118.20850422 118.53255529 121.06172832 118.53808594 123.91503906 C118.54383797 125.89753725 118.5495957 127.88003542 118.55535889 129.86253357 C118.56585793 134.01602436 118.57170849 138.16949585 118.57519531 142.32299805 C118.58069264 147.65194669 118.60475164 152.98064144 118.63316727 158.30951023 C118.65175971 162.4023667 118.65699732 166.49516142 118.65853119 170.58805656 C118.66156346 172.55330742 118.66961125 174.51855705 118.68271637 176.48376656 C118.69971387 179.22741407 118.69791272 181.97043298 118.69140625 184.71411133 C118.70522842 185.93682991 118.70522842 185.93682991 118.71932983 187.18424988 C118.67886782 192.61296471 118.67886782 192.61296471 117.06268311 195.18907166 C115.33496094 196.16113281 115.33496094 196.16113281 111.33496094 196.16113281 C111.3290947 195.20694458 111.32322845 194.25275635 111.31718445 193.26965332 C111.25958728 184.20933425 111.18663849 175.14924672 111.09924603 166.08916473 C111.05481071 161.43299644 111.01549817 156.77691026 110.98852539 152.12060547 C110.96222119 147.6140787 110.92163515 143.1078727 110.87177467 138.60154724 C110.85528692 136.89550311 110.84366152 135.18940374 110.83734703 133.48329163 C110.73540133 108.43461852 103.14362633 86.7954772 94.20996094 63.66113281 C93.48684437 61.77849705 92.76418576 59.89568533 92.04199219 58.01269531 C90.71915886 54.56432359 89.39326611 51.11715795 88.06494141 47.67089844 C86.46403876 43.50986187 84.89505601 39.33763441 83.33496094 35.16113281 C79.20447846 21.52590461 79.20447846 21.52590461 71.33496094 10.16113281 C67.59414536 8.91419429 64.09018049 8.98442926 60.19165039 8.95581055 C59.36215881 8.94591095 58.53266724 8.93601135 57.67803955 8.92581177 C54.93480285 8.89421076 52.19154883 8.86944484 49.44824219 8.84472656 C47.54680429 8.82415583 45.64537095 8.80315932 43.74394226 8.78175354 C38.7380645 8.7265452 33.73214555 8.67713043 28.72619629 8.62890625 C23.61853365 8.57868222 18.51093087 8.52300085 13.40332031 8.46777344 C3.38058497 8.36020699 -6.64220232 8.25875862 -16.66503906 8.16113281 C-15.11961017 4.82987498 -13.79693073 3.15415478 -10.66503906 1.16113281 C-7.05774169 -0.04129965 -3.75549145 0.00570685 0 0 Z " fill="#12F4FA" transform="translate(134.6650390625,143.8388671875)"/>
<path d="M0 0 C1.0686731 -0.0004985 2.13734619 -0.00099701 3.23840332 -0.00151062 C5.49440371 0.00082643 7.75040688 0.0105331 10.00634766 0.02709961 C13.45629229 0.05069604 16.90546388 0.04765687 20.35546875 0.04101562 C22.54948377 0.04659258 24.74349553 0.05370256 26.9375 0.0625 C28.48298523 0.06113289 28.48298523 0.06113289 30.05969238 0.05973816 C31.50644348 0.07403618 31.50644348 0.07403618 32.98242188 0.08862305 C33.82671753 0.09323044 34.67101318 0.09783783 35.54089355 0.10258484 C38.42256535 0.41201067 40.41648247 0.97176566 42.96875 2.36328125 C45.68025044 6.05868932 46.34192341 8.65742154 46.32951355 13.2035675 C46.33363754 14.37159409 46.33776154 15.53962067 46.3420105 16.74304199 C46.33122467 18.01546753 46.32043884 19.28789307 46.30932617 20.59887695 C46.30847949 21.95920289 46.30895585 23.3195302 46.31065369 24.67985535 C46.31151347 28.36551274 46.29389073 32.05087647 46.27293181 35.73646569 C46.25416203 39.59083071 46.25241434 43.44520266 46.24885559 47.29960632 C46.239536 54.59519391 46.21492342 61.89064643 46.18480712 69.18617457 C46.15126041 77.49324761 46.13477643 85.80032715 46.11972082 94.10745108 C46.08837375 111.19280589 46.03561497 128.27802928 45.96875 145.36328125 C46.6299585 145.32775146 47.29116699 145.29222168 47.97241211 145.25561523 C50.95010288 145.09861878 53.92813957 144.94959491 56.90625 144.80078125 C57.94716797 144.74470703 58.98808594 144.68863281 60.06054688 144.63085938 C61.54458008 144.55834961 61.54458008 144.55834961 63.05859375 144.484375 C63.97503662 144.43724365 64.89147949 144.3901123 65.83569336 144.34155273 C67.96875 144.36328125 67.96875 144.36328125 68.96875 145.36328125 C71.29692964 145.73088856 73.6305885 146.06569706 75.96875 146.36328125 C75.96875 148.34328125 75.96875 150.32328125 75.96875 152.36328125 C63.42875 152.36328125 50.88875 152.36328125 37.96875 152.36328125 C37.95416748 148.17350586 37.93958496 143.98373047 37.92456055 139.66699219 C37.87428877 125.84474512 37.80785812 112.02261569 37.73303509 98.20048141 C37.68805358 89.81774909 37.6486444 81.43505947 37.62231445 73.05224609 C37.59935338 65.74648878 37.56597668 58.44086637 37.52004844 51.135216 C37.49609054 47.26626849 37.47737866 43.39745478 37.47113609 39.52843475 C37.46509674 35.88730433 37.44513908 32.24651637 37.41447449 28.60551262 C37.40147802 26.63107662 37.40326734 24.65656068 37.4054718 22.68208313 C37.39293365 21.50701706 37.38039551 20.33195099 37.36747742 19.12127686 C37.36286845 18.09993023 37.35825949 17.0785836 37.35351086 16.02628708 C36.91036501 12.95918724 36.10941196 11.57525892 33.96875 9.36328125 C31.62121128 8.74806531 31.62121128 8.74806531 28.9465332 8.81738281 C27.92570145 8.79766418 26.90486969 8.77794556 25.85310364 8.75762939 C24.75302475 8.75640076 23.65294586 8.75517212 22.51953125 8.75390625 C20.82790108 8.72910187 20.82790108 8.72910187 19.10209656 8.70379639 C15.4950932 8.65515667 11.8885119 8.63390925 8.28125 8.61328125 C5.83786921 8.58513506 3.39450821 8.55520955 0.95117188 8.5234375 C-5.04289171 8.44939344 -11.03683582 8.39784467 -17.03125 8.36328125 C-16.26538086 3.58700562 -16.26538086 3.58700562 -14.15820312 1.57348633 C-9.460326 -0.24470363 -4.99458948 -0.04464511 0 0 Z " fill="#05FCFD" transform="translate(303.03125,143.63671875)"/>
<path d="M0 0 C0.7731609 2.25962508 1.16303768 3.53289204 0.36328125 5.82421875 C-0.15685547 6.74654297 -0.15685547 6.74654297 -0.6875 7.6875 C-1.06132813 8.38617188 -1.43515625 9.08484375 -1.8203125 9.8046875 C-2.20960937 10.52914062 -2.59890625 11.25359375 -3 12 C-5.82482922 17.71243242 -7.70244031 23.3355917 -9.28515625 29.50390625 C-10.16005318 32.55887422 -11.53244013 35.18717692 -13 38 C-13.79555602 40.24164483 -14.52020695 42.50055415 -15.24609375 44.765625 C-15.93054043 46.79414056 -16.70037397 48.7293042 -17.5625 50.6875 C-19.03985348 53.95074092 -19.03985348 53.95074092 -20.0625 57.25 C-21 60 -21 60 -23 63 C-23.34900256 64.7394731 -23.634414 66.49224922 -23.875 68.25 C-24.4691062 71.86216568 -25.1088448 74.64672098 -27.0625 77.75 C-29.17280832 81.28987203 -29.59430604 83.94306039 -30 88 C-30.495 88.495 -30.495 88.495 -31 89 C-33.29111808 99.95463077 -33.33965596 110.95112786 -33.4140625 122.0859375 C-33.43281902 123.88197677 -33.45239559 125.67800764 -33.4727478 127.47402954 C-33.52360211 132.15257771 -33.56347457 136.83115431 -33.60089111 141.50982666 C-33.64122724 146.30349486 -33.69218291 151.09704963 -33.7421875 155.890625 C-33.83839213 165.26033644 -33.92297041 174.63011264 -34 184 C-33.34 184 -32.68 184 -32 184 C-31.68184326 184.81041748 -31.36368652 185.62083496 -31.03588867 186.45581055 C-29.3060033 189.15533158 -29.3060033 189.15533158 -26.91519165 189.48574829 C-24.07668519 189.67755248 -21.27084698 189.71808085 -18.42578125 189.70703125 C-17.38681198 189.72215256 -16.34784271 189.73727386 -15.27738953 189.75285339 C-11.95554144 189.79587714 -8.63459945 189.80458281 -5.3125 189.8125 C-3.06182462 189.8356328 -0.81117097 189.86099557 1.43945312 189.88867188 C6.95964386 189.95166885 12.47947841 189.98648675 18 190 C17.23754883 193.78436279 17.23754883 193.78436279 15.09960938 195.72509766 C10.54425857 197.59876195 6.28665866 197.42847799 1.40625 197.3984375 C-0.13017151 197.40274277 -0.13017151 197.40274277 -1.69763184 197.40713501 C-3.85946202 197.40917307 -6.02131074 197.40366128 -8.18310547 197.39111328 C-11.48837598 197.37505647 -14.79242368 197.39097124 -18.09765625 197.41015625 C-20.20052353 197.40817377 -22.30339004 197.40433001 -24.40625 197.3984375 C-25.39282593 197.40451019 -26.37940186 197.41058289 -27.39587402 197.4168396 C-36.34866322 197.32525969 -36.34866322 197.32525969 -40 194 C-42.14738165 189.83070496 -42.25316366 186.23364028 -42.25878906 181.58618164 C-42.2622937 180.85691467 -42.26579834 180.12764771 -42.26940918 179.37628174 C-42.27819226 176.97080892 -42.27238399 174.56563198 -42.265625 172.16015625 C-42.26697394 170.47448165 -42.26891638 168.78880743 -42.27142334 167.10313416 C-42.27437107 163.56668399 -42.27009309 160.03033488 -42.26074219 156.49389648 C-42.24942663 151.9989938 -42.25585879 147.50433209 -42.26788712 143.00943851 C-42.27518286 139.52347567 -42.27278144 136.03756801 -42.26763153 132.55160332 C-42.26631212 130.89689543 -42.26788166 129.24218226 -42.27259064 127.58748055 C-42.30168776 114.47392125 -41.47235628 101.74536316 -37.8125 89.0625 C-37.56967285 88.2173584 -37.3268457 87.3722168 -37.07666016 86.50146484 C-32.85485378 72.54438825 -27.24549961 59.01192554 -21.91433716 45.45137024 C-19.73562045 39.90390946 -17.601192 34.34139978 -15.49609375 28.765625 C-14.68994106 26.64088401 -13.88307839 24.51641405 -13.07598877 22.39202881 C-12.57227207 21.0612809 -12.07135462 19.7294696 -11.57342529 18.39654541 C-10.88675528 16.5606873 -10.18779125 14.72944172 -9.48828125 12.8984375 C-8.90880737 11.36195557 -8.90880737 11.36195557 -8.31762695 9.79443359 C-6.279952 5.47291655 -3.97181385 2.6478759 0 0 Z " fill="#E21BEA" transform="translate(110,158)"/>
<path d="M0 0 C0.94455551 -0.00945648 1.88911102 -0.01891296 2.86228943 -0.02865601 C4.38270592 -0.01954697 4.38270592 -0.01954697 5.93383789 -0.01025391 C7.50567589 -0.01455917 7.50567589 -0.01455917 9.10926819 -0.01895142 C11.32415304 -0.02099179 13.53905592 -0.01546385 15.75390625 -0.00292969 C19.14046661 0.01310769 22.52583056 -0.00277161 25.91235352 -0.02197266 C28.06535094 -0.01998991 30.21834762 -0.01614557 32.37133789 -0.01025391 C33.38292465 -0.0163266 34.39451141 -0.02239929 35.43675232 -0.02865601 C44.29894551 0.05977334 44.29894551 0.05977334 48.21899414 3.38818359 C52.49656166 11.94331864 50.36669403 25.25233362 50.35180664 34.73193359 C50.35248273 36.27404801 50.35345528 37.81616231 50.35470581 39.35827637 C50.35616845 42.56861398 50.35407488 45.7789235 50.34936523 48.98925781 C50.34366885 53.06695544 50.34695561 57.14458719 50.3529377 61.22228241 C50.35658235 64.4002124 50.35538695 67.57812724 50.35280991 70.75605774 C50.35215139 72.25808215 50.35293058 73.76010803 50.35528946 75.26213074 C50.38650581 100.71329188 50.38650581 100.71329188 47.92654419 104.24230957 C46.21899414 105.38818359 46.21899414 105.38818359 42.21899414 105.38818359 C42.21756912 104.24670364 42.2161441 103.10522369 42.2146759 101.92915344 C42.19800815 91.17301366 42.1552412 80.41725232 42.08690357 69.66131306 C42.05260928 64.131494 42.02751976 58.60195193 42.0234375 53.07202148 C42.01915985 47.73551244 41.99074094 42.3996285 41.94556236 37.06331444 C41.93257037 35.02719958 41.92828568 32.99100999 41.93284035 30.95485878 C41.93773418 28.10292649 41.91170805 25.25282975 41.87841797 22.40112305 C41.89135643 21.1376857 41.89135643 21.1376857 41.90455627 19.84872437 C41.8218954 15.62591348 41.56813475 13.85884377 38.97717285 10.36608887 C36.10310958 8.30508213 34.89657127 7.75741977 31.42871094 7.72875977 C30.508134 7.70911667 29.58755707 7.68947357 28.63908386 7.66923523 C27.16850273 7.6751342 27.16850273 7.6751342 25.66821289 7.68115234 C24.65426956 7.66603104 23.64032623 7.65090973 22.59565735 7.6353302 C19.36571038 7.59243476 16.13669765 7.58361313 12.90649414 7.57568359 C10.7131099 7.55254082 8.51974789 7.52717595 6.32641602 7.49951172 C0.95726655 7.43664148 -4.41151757 7.40172177 -9.78100586 7.38818359 C-9.41222287 4.71450692 -8.97367643 3.57670854 -7.01731873 1.66244507 C-4.44369898 0.19598456 -2.94468258 0.0084806 0 0 Z " fill="#0EF9FC" transform="translate(395.781005859375,234.61181640625)"/>
<path d="M0 0 C13.53 0 27.06 0 41 0 C41 13.2 41 26.4 41 40 C41.66 40 42.32 40 43 40 C43 41.65 43 43.3 43 45 C46.27370452 45.72284356 49.34837473 46.13926373 52.69848633 46.20532227 C53.59904251 46.22526749 54.49959869 46.24521271 55.42744446 46.26576233 C56.3859581 46.28247482 57.34447174 46.29918732 58.33203125 46.31640625 C59.81965218 46.3475779 59.81965218 46.3475779 61.33732605 46.37937927 C64.49564899 46.44460052 67.65405288 46.50363202 70.8125 46.5625 C72.95769056 46.60571131 75.10287302 46.64932643 77.24804688 46.69335938 C82.49861311 46.80025372 87.74925932 46.90207037 93 47 C93.578125 48.89453125 93.578125 48.89453125 94 51 C92.15840327 53.48615558 90.99529289 54.00156904 88 55 C86.45185493 55.10147433 84.89980303 55.14833858 83.34838867 55.16113281 C82.40698532 55.17074036 81.46558197 55.1803479 80.49565125 55.19024658 C78.97219841 55.1966214 78.97219841 55.1966214 77.41796875 55.203125 C76.37103348 55.20882507 75.32409821 55.21452515 74.24543762 55.22039795 C72.02878836 55.22984766 69.81212504 55.23638182 67.59545898 55.24023438 C64.2111751 55.24993216 60.82750051 55.28095313 57.44335938 55.3125 C55.2890661 55.31903098 53.13476849 55.32428108 50.98046875 55.328125 C49.97090622 55.3404718 48.96134369 55.3528186 47.92118835 55.36553955 C42.63589099 55.34885812 38.37338795 55.32568374 34 52 C31.49173977 47.18209133 31.738092 42.18660774 31.8046875 36.8828125 C31.8075174 36.02565643 31.81034729 35.16850037 31.81326294 34.28536987 C31.82440001 31.56510068 31.8494924 28.84516859 31.875 26.125 C31.88503818 24.27344228 31.89416256 22.42187936 31.90234375 20.5703125 C31.92261109 16.04664268 31.96177158 11.52369581 32 7 C21.44 7 10.88 7 0 7 C0 4.69 0 2.38 0 0 Z " fill="#F00EF1" transform="translate(144,300)"/>
<path d="M0 0 C0.66 0 1.32 0 2 0 C2.042721 1.66611905 2.04063832 3.33382885 2 5 C1.67 5.33 1.34 5.66 1 6 C0.88348589 8.8036352 0.83198192 11.58296191 0.82299805 14.38769531 C0.81642685 15.2673848 0.80985565 16.14707428 0.80308533 17.05342102 C0.78329915 19.97832311 0.77167714 22.9031737 0.76171875 25.828125 C0.75764322 26.82493034 0.7535677 27.82173569 0.74936867 28.84874725 C0.72848392 34.12588801 0.71419339 39.40300259 0.70483398 44.68017578 C0.69377242 50.13575978 0.65938219 55.59093556 0.61966228 61.04637527 C0.59353156 65.23625453 0.58514523 69.42603611 0.58155251 73.61598969 C0.57667634 75.62704979 0.56503318 77.63810525 0.54651451 79.649086 C0.52220146 82.46462908 0.52307392 85.27911093 0.5300293 88.09472656 C0.51081421 89.34178123 0.51081421 89.34178123 0.49121094 90.61402893 C0.52629145 94.50974618 0.75416866 96.5760652 2.74855042 100.0153656 C5.25980775 102.2290184 6.20385942 102.63106775 9.49316406 102.65942383 C10.81408051 102.68888847 10.81408051 102.68888847 12.16168213 102.71894836 C13.10348328 102.71501572 14.04528442 102.71108307 15.015625 102.70703125 C15.98659119 102.72215256 16.95755737 102.73727386 17.95794678 102.75285339 C21.0555328 102.79580013 24.15214566 102.80457526 27.25 102.8125 C29.3515885 102.83563883 31.45315376 102.86100288 33.5546875 102.88867188 C38.7032113 102.95159344 43.85112554 102.9838742 49 103 C49 104.32 49 105.64 49 107 C41.79193836 107.12657807 34.58416226 107.21425772 27.37524414 107.2746582 C24.92201019 107.29983207 22.46885145 107.33397363 20.01586914 107.37719727 C16.49346384 107.43771969 12.97204833 107.46618148 9.44921875 107.48828125 C8.34913986 107.51408768 7.24906097 107.5398941 6.11564636 107.56648254 C3.32250231 107.56751586 0.74286258 107.52627482 -2 107 C-5.06694657 103.84315726 -5 102.42845131 -5 98 C-4.34 98 -3.68 98 -3 98 C-3 97.34 -3 96.68 -3 96 C-3.66 96 -4.32 96 -5 96 C-5.02330097 86.70650557 -5.04100476 77.41302138 -5.05181217 68.11950397 C-5.0570025 63.80288464 -5.0640291 59.48628547 -5.07543945 55.16967773 C-5.08640656 50.99401339 -5.09230573 46.8183683 -5.09487724 42.64269066 C-5.09670683 41.05972173 -5.10027875 39.4767537 -5.10573006 37.89379311 C-5.19552801 10.70520423 -5.19552801 10.70520423 0 0 Z " fill="#FD00FD" transform="translate(75,246)"/>
<path d="M0 0 C2.34325379 0.93730151 3.72451731 1.57594378 5.11778069 3.72062302 C6.20149046 6.52058792 6.24596917 8.71695798 6.24050903 11.72003174 C6.24325836 12.88668365 6.24600769 14.05333557 6.24884033 15.25534058 C6.24164978 16.53136139 6.23445923 17.8073822 6.22705078 19.12207031 C6.2264865 20.48224886 6.22680355 21.84242801 6.22793579 23.2026062 C6.22850966 26.89238771 6.2167498 30.58203921 6.20278788 34.2717905 C6.19028627 38.12883915 6.18911047 41.98589076 6.18673706 45.84295654 C6.18052062 53.14562454 6.16410758 60.44823265 6.14403808 67.75087428 C6.1216842 76.06518979 6.11068694 84.37950815 6.10064721 92.69384623 C6.07974149 109.79593212 6.04456232 126.89795973 6 144 C6.6612085 143.96447021 7.32241699 143.92894043 8.00366211 143.89233398 C10.98135288 143.73533753 13.95938957 143.58631366 16.9375 143.4375 C17.97841797 143.38142578 19.01933594 143.32535156 20.09179688 143.26757812 C21.08115234 143.21923828 22.07050781 143.17089844 23.08984375 143.12109375 C24.00628662 143.0739624 24.92272949 143.02683105 25.86694336 142.97827148 C28 143 28 143 29 144 C31.32817964 144.36760731 33.6618385 144.70241581 36 145 C36 146.98 36 148.96 36 151 C23.46 151 10.92 151 -2 151 C-2.01458252 146.81546143 -2.02916504 142.63092285 -2.04418945 138.31958008 C-2.09447786 124.50931408 -2.1609119 110.69916561 -2.23571491 96.88901234 C-2.28068183 88.51415579 -2.3200944 80.13934185 -2.34643555 71.7644043 C-2.3694084 64.46486342 -2.40279838 57.16545728 -2.44870156 49.86602324 C-2.4726435 46.00095633 -2.49136587 42.13602294 -2.49761391 38.27088356 C-2.50366045 34.63221267 -2.52364429 30.99388347 -2.55427551 27.35533905 C-2.56724983 25.38467381 -2.56548462 23.41392876 -2.5632782 21.44322205 C-2.57581635 20.26678131 -2.58835449 19.09034058 -2.60127258 17.87825012 C-2.60588155 16.85782529 -2.61049051 15.83740046 -2.61523914 14.78605366 C-3.05893975 11.57321725 -4.16944724 9.64653795 -6 7 C-3.65516569 7.93793372 -2.27511137 8.57593137 -0.88221931 10.72299576 C0.19799794 13.51103184 0.24598627 15.69149872 0.24050903 18.68206787 C0.24325836 19.84030563 0.24600769 20.9985434 0.24884033 22.19187927 C0.24164978 23.45854935 0.23445923 24.72521942 0.22705078 26.03027344 C0.2264865 27.38059989 0.22680356 28.73092696 0.22793579 30.08125305 C0.22850964 33.74417631 0.21675011 37.40696859 0.20278788 41.06986141 C0.19028593 44.89888279 0.18911044 48.72790716 0.18673706 52.5569458 C0.18052072 59.80649005 0.16410781 67.05597399 0.14403808 74.30549169 C0.12168389 82.55934879 0.11068686 90.81320877 0.10064721 99.0670886 C0.07974171 116.04476661 0.04306355 133.02236154 0 150 C11.22 150 22.44 150 34 150 C34 148.68 34 147.36 34 146 C33.12674072 146.00523682 32.25348145 146.01047363 31.35375977 146.01586914 C28.12410727 146.03287751 24.89447755 146.04543369 21.66479492 146.05493164 C20.26504772 146.0599708 18.8653058 146.06680216 17.46557617 146.07543945 C15.45754223 146.0875232 13.44947043 146.09269807 11.44140625 146.09765625 C10.23170166 146.10289307 9.02199707 146.10812988 7.77563477 146.11352539 C5 146 5 146 4 145 C3.89790574 143.18238299 3.86645947 141.36077496 3.86196899 139.54029846 C3.85651566 138.3554184 3.85106232 137.17053833 3.84544373 135.94975281 C3.8444014 134.63803604 3.84335907 133.32631927 3.84228516 131.97485352 C3.83761941 130.5888045 3.83247625 129.20275703 3.82688904 127.81671143 C3.81558989 124.82540085 3.80716458 121.83410035 3.80076981 118.84277534 C3.79011549 114.11641318 3.76987836 109.39012325 3.74765015 104.6638031 C3.68563692 91.22178447 3.6316741 77.77976981 3.59863281 64.33764648 C3.58031642 56.91874571 3.55141896 49.49996552 3.5106281 42.08115333 C3.48950882 38.15191137 3.47409392 34.2228217 3.47182083 30.29351997 C3.46968113 26.5990506 3.45388206 22.9048984 3.42743111 19.21052551 C3.41675776 17.20230387 3.42100388 15.19402048 3.4256134 13.18577576 C3.41452042 11.99807587 3.40342743 10.81037598 3.39199829 9.58668518 C3.38868814 8.5500451 3.385378 7.51340502 3.38196754 6.4453516 C3.25591825 5.63838557 3.12986897 4.83141954 3 4 C2.01 3.34 1.02 2.68 0 2 C0 1.34 0 0.68 0 0 Z " fill="#35E2F5" transform="translate(343,145)"/>
<path d="M0 0 C1.98 0.495 1.98 0.495 4 1 C3.67 59.41 3.34 117.82 3 178 C2.01 178.33 1.02 178.66 0 179 C-0.15386759 156.25195439 -0.30190183 133.50387752 -0.4429636 110.75574875 C-0.5085953 100.19375377 -0.57614644 89.63177754 -0.64819336 79.06982422 C-0.71097379 69.86561167 -0.77017617 60.66138431 -0.82505554 51.45712113 C-0.8542478 46.58212752 -0.88524962 41.70716037 -0.92053413 36.83220673 C-0.95367428 32.24571815 -0.98203774 27.65922506 -1.00670624 23.07268333 C-1.01661707 21.38761703 -1.0282869 19.70256003 -1.04183006 18.017519 C-1.06003574 15.71990973 -1.07195776 13.42235101 -1.08229065 11.12469482 C-1.09058679 9.83787182 -1.09888292 8.55104881 -1.10743046 7.22523117 C-1.0197739 4.59364365 -0.79256356 2.49002072 0 0 Z " fill="#FB02FD" transform="translate(274,159)"/>
<path d="M0 0 C0.99 0 1.98 0 3 0 C1.84822461 9.28630926 -0.25584415 17.91608919 -3.125 26.8125 C-3.49753906 27.99392578 -3.87007812 29.17535156 -4.25390625 30.39257812 C-5.16083493 33.26451894 -6.07625375 36.1334337 -7 39 C-6.35562988 38.99476318 -5.71125977 38.98952637 -5.04736328 38.98413086 C-2.07325247 38.96309641 0.9008426 38.9502568 3.875 38.9375 C4.88820312 38.92912109 5.90140625 38.92074219 6.9453125 38.91210938 C13.36263015 38.89154105 19.62990957 39.21676321 26 40 C26 41.98 26 43.96 26 46 C12.47 46 -1.06 46 -15 46 C-13.87549507 37.0039606 -13.87549507 37.0039606 -12.2578125 32.3203125 C-11.91363281 31.30839844 -11.56945312 30.29648438 -11.21484375 29.25390625 C-10.85519531 28.22136719 -10.49554688 27.18882812 -10.125 26.125 C-9.41781144 24.06560474 -8.71206636 22.00571319 -8.0078125 19.9453125 C-7.66524414 18.95047852 -7.32267578 17.95564453 -6.96972656 16.93066406 C-5.79144735 13.36972156 -4.77255558 9.7750655 -3.80419922 6.15185547 C-2.87386628 3.66249465 -1.80956872 1.94668239 0 0 Z " fill="#30E1F8" transform="translate(154,204)"/>
<path d="M0 0 C1.32 0.33 2.64 0.66 4 1 C5.47196052 3.94392104 5.12734761 6.56257277 5.12939453 9.84887695 C5.13114685 10.55314819 5.13289917 11.25741943 5.13470459 11.98303223 C5.13911617 14.31814009 5.13618661 16.65317257 5.1328125 18.98828125 C5.13348597 20.61012283 5.13445635 22.23196431 5.13571167 23.85380554 C5.13718789 27.25760863 5.13503736 30.6613855 5.13037109 34.06518555 C5.12468745 38.4231161 5.12794461 42.78098489 5.13394356 47.13891315 C5.13756284 50.49068158 5.13640406 53.84243546 5.13381577 57.19420433 C5.13314957 58.80052892 5.13396416 60.40685484 5.13629532 62.01317787 C5.13884273 64.26313379 5.13495122 66.51299087 5.12939453 68.76293945 C5.12820114 70.68249199 5.12820114 70.68249199 5.12698364 72.64082336 C5.01647909 75.56406854 4.68140409 78.16352178 4 81 C2.68 81 1.36 81 0 81 C0 54.27 0 27.54 0 0 Z " fill="#02FDFE" transform="translate(247,257)"/>
<path d="M0 0 C7.5080544 -0.36924858 7.5080544 -0.36924858 9.66015625 1.24609375 C13.46462518 6.22628778 14.21704273 12.96004392 15 19 C15.64238957 21.34013344 16.31320058 23.67251306 17 26 C18.0236323 29.9941731 19.01389474 33.99641264 20 38 C14.04296875 38.48828125 14.04296875 38.48828125 12 38 C9.75195928 34.73822901 8.39725814 31.58895701 7.28125 27.8046875 C6.98863281 26.84175781 6.69601563 25.87882812 6.39453125 24.88671875 C5.79604442 22.87172596 5.19970474 20.85609424 4.60546875 18.83984375 C4.31285156 17.87949219 4.02023438 16.91914063 3.71875 15.9296875 C3.46029297 15.05554199 3.20183594 14.18139648 2.93554688 13.28076172 C1.95129383 10.88125965 0.85813635 9.75488851 -1 8 C-1.10118893 5.21464152 -0.49854208 2.76464243 0 0 Z " fill="#F109F8" transform="translate(158,204)"/>
<path d="M0 0 C1.32 0 2.64 0 4 0 C4 60.72 4 121.44 4 184 C3.34 184 2.68 184 2 184 C2 123.94 2 63.88 2 2 C1.01 1.67 0.02 1.34 -1 1 C-0.67 0.67 -0.34 0.34 0 0 Z " fill="#C91BF2" transform="translate(276,158)"/>
<path d="M0 0 C0 13.2 0 26.4 0 40 C-2.64 40 -5.28 40 -8 40 C-8.09911652 35.10707468 -8.17158399 30.21473779 -8.21972656 25.32104492 C-8.23980207 23.65752987 -8.26706876 21.99408504 -8.30175781 20.33081055 C-8.35045766 17.9352076 -8.37300856 15.54054008 -8.390625 13.14453125 C-8.41127014 12.4047554 -8.43191528 11.66497955 -8.45318604 10.90278625 C-8.45474974 7.27799431 -8.0808462 5.13709815 -6.22558594 1.9909668 C-4 0 -4 0 0 0 Z " fill="#E815F4" transform="translate(379,249)"/>
<path d="M0 0 C0.33 0 0.66 0 1 0 C0.67 28.38 0.34 56.76 0 86 C0.66 86 1.32 86 2 86 C2 86.66 2 87.32 2 88 C1.34 88 0.68 88 0 88 C0.99 90.64 1.98 93.28 3 96 C19.83 96 36.66 96 54 96 C54.495 94.02 54.495 94.02 55 92 C55.99 92 56.98 92 58 92 C57.71452397 94.75960162 57.24626065 95.78983805 55.11132812 97.61181641 C50.55897241 99.64294436 46.33801945 99.42879413 41.40625 99.3984375 C40.38196899 99.40130768 39.35768799 99.40417786 38.30236816 99.40713501 C36.14053798 99.40917307 33.97868926 99.40366128 31.81689453 99.39111328 C28.51162402 99.37505647 25.20757632 99.39097124 21.90234375 99.41015625 C19.79947647 99.40817377 17.69660996 99.40433001 15.59375 99.3984375 C14.60717407 99.40451019 13.62059814 99.41058289 12.60412598 99.4168396 C3.65133678 99.32525969 3.65133678 99.32525969 0 96 C-2.14738165 91.83070496 -2.25316366 88.23364028 -2.25878906 83.58618164 C-2.2622937 82.85691467 -2.26579834 82.12764771 -2.26940918 81.37628174 C-2.27819226 78.97080892 -2.27238399 76.56563198 -2.265625 74.16015625 C-2.26697394 72.47448165 -2.26891638 70.78880743 -2.27142334 69.10313416 C-2.27437107 65.56668399 -2.27009309 62.03033488 -2.26074219 58.49389648 C-2.24942663 53.9989938 -2.25585879 49.50433209 -2.26788712 45.00943851 C-2.27518286 41.52347567 -2.27278144 38.03756801 -2.26763153 34.55160332 C-2.26631212 32.89689543 -2.26788166 31.24218226 -2.27259064 29.58748055 C-2.29492871 19.52010325 -1.75301357 9.94276062 0 0 Z " fill="#E122E1" transform="translate(70,256)"/>
<path d="M0 0 C2.31 0 4.62 0 7 0 C8.1480626 6.18465042 8.18385943 12.16478941 8.1875 18.4375 C8.19974609 19.54416016 8.21199219 20.65082031 8.22460938 21.79101562 C8.24824132 34.9697617 8.24824132 34.9697617 4.5625 39.9375 C3 41 3 41 0 41 C0 27.47 0 13.94 0 0 Z " fill="#03FCFD" transform="translate(136,300)"/>
<path d="M0 0 C12.54 0 25.08 0 38 0 C38 13.53 38 27.06 38 41 C37.67 40.34 37.34 39.68 37 39 C36.01 39 35.02 39 34 39 C33.505 21.675 33.505 21.675 33 4 C22.11 4 11.22 4 0 4 C0 2.68 0 1.36 0 0 Z " fill="#FE00FD" transform="translate(145,301)"/>
<path d="M0 0 C13.53 0 27.06 0 41 0 C41 13.2 41 26.4 41 40 C41.66 40 42.32 40 43 40 C43 41.65 43 43.3 43 45 C46.27370452 45.72284356 49.34837473 46.13926373 52.69848633 46.20532227 C53.59904251 46.22526749 54.49959869 46.24521271 55.42744446 46.26576233 C56.3859581 46.28247482 57.34447174 46.29918732 58.33203125 46.31640625 C59.81965218 46.3475779 59.81965218 46.3475779 61.33732605 46.37937927 C64.49564899 46.44460052 67.65405288 46.50363202 70.8125 46.5625 C72.95769056 46.60571131 75.10287302 46.64932643 77.24804688 46.69335938 C82.49861311 46.80025372 87.74925932 46.90207037 93 47 C93.495 48.98 93.495 48.98 94 51 C93.01 51.495 93.01 51.495 92 52 C92 50.68 92 49.36 92 48 C91.43259094 48.00444122 90.86518188 48.00888245 90.28057861 48.01345825 C84.3758801 48.05769954 78.47122868 48.08786975 72.56640625 48.10986328 C70.36261075 48.11992183 68.1588286 48.13357026 65.95507812 48.15087891 C62.78772691 48.1751334 59.62055213 48.1864846 56.453125 48.1953125 C55.46757629 48.20563507 54.48202759 48.21595764 53.46661377 48.22659302 C52.5459613 48.22674408 51.62530884 48.22689514 50.67675781 48.22705078 C49.46430389 48.23371262 49.46430389 48.23371262 48.22735596 48.24050903 C45.71968036 47.96973119 44.12165987 47.35265319 42 46 C41.25 43.875 41.25 43.875 41 42 C40.34 42 39.68 42 39 42 C39 28.47 39 14.94 39 1 C26.46 1 13.92 1 1 1 C1 2.65 1 4.3 1 6 C11.56 6 22.12 6 33 6 C33.05607422 10.08375 33.05607422 10.08375 33.11328125 14.25 C33.15958793 16.90779321 33.21078821 19.56545067 33.26245117 22.22314453 C33.29555738 24.05997358 33.32363317 25.89690086 33.34643555 27.73388672 C33.38024631 30.38551411 33.43257293 33.03625283 33.48828125 35.6875 C33.49467117 36.49928711 33.5010611 37.31107422 33.50764465 38.14746094 C33.64841403 43.69601601 34.80755392 47.89535255 37 53 C36.01 52.67 35.02 52.34 34 52 C31.65358988 47.02350491 31.73719216 42.25827318 31.8046875 36.8828125 C31.8075174 36.02565643 31.81034729 35.16850037 31.81326294 34.28536987 C31.82440001 31.56510068 31.8494924 28.84516859 31.875 26.125 C31.88503818 24.27344228 31.89416256 22.42187936 31.90234375 20.5703125 C31.92261109 16.04664268 31.96177158 11.52369581 32 7 C21.44 7 10.88 7 0 7 C0 4.69 0 2.38 0 0 Z " fill="#DB2BE8" transform="translate(144,300)"/>
<path d="M0 0 C0 1.32 0 2.64 0 4 C1.32305397 3.98667633 1.32305397 3.98667633 2.6728363 3.9730835 C11.01403265 3.89269936 19.35509757 3.83191498 27.69659328 3.79275131 C31.98433999 3.77193942 36.27176472 3.74374008 40.55932617 3.69824219 C44.70258276 3.6545543 48.84553104 3.63081485 52.98900032 3.62049103 C54.56415721 3.61314057 56.13929858 3.59878733 57.71432304 3.57707977 C66.32262449 3.46323197 73.30687934 3.60827285 81 8 C81 8.99 81 9.98 81 11 C80.3476387 10.51391769 79.6952774 10.02783539 79.02314758 9.52702332 C75.18967213 7.59069496 71.82671244 7.55987349 67.62963867 7.56762695 C66.38496323 7.55233948 66.38496323 7.55233948 65.11514282 7.53674316 C62.38268255 7.50663945 59.650573 7.49735128 56.91796875 7.48828125 C55.01938209 7.47143261 53.12080658 7.45328212 51.22224426 7.43388367 C46.23283368 7.38639763 41.24346827 7.35657919 36.25390625 7.33044434 C31.15941445 7.30063182 26.06507829 7.25410384 20.97070312 7.20898438 C10.98055019 7.12296711 0.99036521 7.05561474 -9 7 C-6.9696035 2.63239154 -5.10341613 0 0 0 Z " fill="#22D7F8" transform="translate(127,145)"/>
<path d="M0 0 C3.40392231 3.40392231 3.3487977 4.59540077 3.3732605 9.21170044 C3.36247467 10.06118256 3.35168884 10.91066467 3.34057617 11.78588867 C3.34101425 12.68365524 3.34145233 13.58142181 3.34190369 14.50639343 C3.33981179 17.47713891 3.31646176 20.44732172 3.29296875 23.41796875 C3.28737422 25.47634065 3.28310345 27.53471655 3.28010559 29.59309387 C3.26864555 35.01340748 3.23916829 40.43348032 3.20599365 45.85369873 C3.1753178 51.38355248 3.16160556 56.91344509 3.14648438 62.44335938 C3.1142998 73.29567876 3.06308936 84.14781937 3 95 C3.66 95.33 4.32 95.66 5 96 C4.01 96.495 4.01 96.495 3 97 C2.566875 97.804375 2.13375 98.60875 1.6875 99.4375 C-0.27286429 102.41434947 -1.64662411 103.00305041 -5 104 C-5 103.01 -5 102.02 -5 101 C-2.525 100.505 -2.525 100.505 0 100 C0 67 0 34 0 0 Z " fill="#536AE2" transform="translate(435,245)"/>
<path d="M0 0 C0.33 0 0.66 0 1 0 C1.042721 1.66611905 1.04063832 3.33382885 1 5 C0.67 5.33 0.34 5.66 0 6 C-2.29111808 16.95463077 -2.33965596 27.95112786 -2.4140625 39.0859375 C-2.43281902 40.88197677 -2.45239559 42.67800764 -2.4727478 44.47402954 C-2.52360211 49.15257771 -2.56347457 53.83115431 -2.60089111 58.50982666 C-2.64122724 63.30349486 -2.69218291 68.09704963 -2.7421875 72.890625 C-2.83839213 82.26033644 -2.92297041 91.63011264 -3 101 C-2.34 101 -1.68 101 -1 101 C-0.66830811 101.81041748 -0.33661621 102.62083496 0.00512695 103.45581055 C1.68535268 106.1368066 1.68535268 106.1368066 3.96835327 106.48574829 C6.6275065 106.67727679 9.25184056 106.71810343 11.91796875 106.70703125 C13.37654045 106.72971321 13.37654045 106.72971321 14.86457825 106.75285339 C17.97245224 106.79586512 21.07935753 106.80458147 24.1875 106.8125 C26.29364579 106.83563379 28.39976836 106.86099678 30.50585938 106.88867188 C35.67065906 106.95165755 40.83484994 106.98388754 46 107 C46 107.33 46 107.66 46 108 C39.68317602 108.15228752 33.36682613 108.25727116 27.04858398 108.32958984 C24.89996654 108.35974019 22.75147195 108.40066808 20.60327148 108.45263672 C17.51254977 108.52552773 14.42345641 108.55947388 11.33203125 108.5859375 C9.89426079 108.63238907 9.89426079 108.63238907 8.42744446 108.67977905 C7.52688828 108.68023224 6.62633209 108.68068542 5.69848633 108.68115234 C4.91016922 108.69447601 4.12185211 108.70779968 3.30964661 108.7215271 C-0.31757978 107.58839178 -2.26829656 105.2538391 -4 102 C-4.6795616 99.02098177 -4.66478728 96.15385179 -4.61523438 93.1081543 C-4.62078339 92.23415985 -4.6263324 91.36016541 -4.63204956 90.45968628 C-4.64382548 87.58063297 -4.61958582 84.70316123 -4.59375 81.82421875 C-4.59203781 79.81411307 -4.59210568 77.80400517 -4.59387207 75.79389954 C-4.59221981 71.5831665 -4.57354344 67.37296646 -4.54199219 63.16235352 C-4.50239193 57.78240475 -4.49793884 52.4031562 -4.50545502 47.02308941 C-4.50853524 42.87160402 -4.49636556 38.72027407 -4.47932434 34.56882668 C-4.47232354 32.58623036 -4.46916624 30.60361642 -4.47001648 28.62100792 C-4.46820493 25.84036259 -4.44670556 23.06053239 -4.41992188 20.2800293 C-4.42285248 19.47089584 -4.42578308 18.66176239 -4.42880249 17.82810974 C-4.33428901 11.42115254 -2.87067816 5.74135632 0 0 Z " fill="#DB11F7" transform="translate(79,241)"/>
<path d="M0 0 C0.33 0 0.66 0 1 0 C1 1.98 1 3.96 1 6 C12.22 6 23.44 6 35 6 C35 7.32 35 8.64 35 10 C22.46 10 9.92 10 -3 10 C-2 3 -2 3 0 0 Z " fill="#03FDFD" transform="translate(144,239)"/>
<path d="M0 0 C2.31 0 4.62 0 7 0 C8.1480626 6.18465042 8.18385943 12.16478941 8.1875 18.4375 C8.19974609 19.54416016 8.21199219 20.65082031 8.22460938 21.79101562 C8.23501016 27.59118648 7.99014202 32.53300909 6 38 C4.75993819 34.17254277 4.87307798 30.36654408 4.90234375 26.390625 C4.9037587 25.66381531 4.90517365 24.93700562 4.90663147 24.18817139 C4.91221208 21.87540506 4.92476096 19.56273688 4.9375 17.25 C4.94251751 15.67838682 4.94707998 14.10677211 4.95117188 12.53515625 C4.96217515 8.69006657 4.97942639 4.8450499 5 1 C3.68 1 2.36 1 1 1 C1 13.54 1 26.08 1 39 C1.99 39.33 2.98 39.66 4 40 C2.02 40.495 2.02 40.495 0 41 C0 27.47 0 13.94 0 0 Z " fill="#17F8FB" transform="translate(136,300)"/>
<path d="M0 0 C2 1 2 1 4 5 C20.83 5 37.66 5 55 5 C55.33 3.68 55.66 2.36 56 1 C56.99 1 57.98 1 59 1 C58.71452397 3.75960162 58.24626065 4.78983805 56.11132812 6.61181641 C51.55897241 8.64294436 47.33801945 8.42879413 42.40625 8.3984375 C40.86982849 8.40274277 40.86982849 8.40274277 39.30236816 8.40713501 C37.14053798 8.40917307 34.97868926 8.40366128 32.81689453 8.39111328 C29.51162402 8.37505647 26.20757632 8.39097124 22.90234375 8.41015625 C20.79947647 8.40817377 18.69660996 8.40433001 16.59375 8.3984375 C15.60717407 8.40451019 14.62059814 8.41058289 13.60412598 8.4168396 C4.82435369 8.32702952 4.82435369 8.32702952 1 5 C0.1875 2.3125 0.1875 2.3125 0 0 Z " fill="#DD2EDD" transform="translate(69,347)"/>
<path d="M0 0 C0.33 0 0.66 0 1 0 C1 5.61 1 11.22 1 17 C3.47306641 16.87431641 3.47306641 16.87431641 5.99609375 16.74609375 C8.1432161 16.64295687 10.29035226 16.54010706 12.4375 16.4375 C13.52611328 16.38142578 14.61472656 16.32535156 15.73632812 16.26757812 C16.77080078 16.21923828 17.80527344 16.17089844 18.87109375 16.12109375 C19.82943115 16.0739624 20.78776855 16.02683105 21.77514648 15.97827148 C24 16 24 16 25 17 C27.32817964 17.36760731 29.6618385 17.70241581 32 18 C32 19.98 32 21.96 32 24 C19.79 24 7.58 24 -5 24 C-5 23.67 -5 23.34 -5 23 C6.55 23 18.1 23 30 23 C30 21.68 30 20.36 30 19 C28.69011108 19.00785522 28.69011108 19.00785522 27.35375977 19.01586914 C24.12410727 19.03287751 20.89447755 19.04543369 17.66479492 19.05493164 C16.26504772 19.0599708 14.8653058 19.06680216 13.46557617 19.07543945 C11.45754223 19.0875232 9.44947043 19.09269807 7.44140625 19.09765625 C6.23170166 19.10289307 5.02199707 19.10812988 3.77563477 19.11352539 C1 19 1 19 0 18 C-0.08631874 16.65732587 -0.10706473 15.31025678 -0.09765625 13.96484375 C-0.09443359 13.15595703 -0.09121094 12.34707031 -0.08789062 11.51367188 C-0.07951172 10.66353516 -0.07113281 9.81339844 -0.0625 8.9375 C-0.05798828 8.08349609 -0.05347656 7.22949219 -0.04882812 6.34960938 C-0.03700373 4.23304337 -0.01906769 2.11651315 0 0 Z " fill="#31E2F5" transform="translate(347,272)"/>
<path d="M0 0 C0.33 0 0.66 0 1 0 C1 13.2 1 26.4 1 40 C1.66 40 2.32 40 3 40 C3 41.65 3 43.3 3 45 C6.27370452 45.72284356 9.34837473 46.13926373 12.69848633 46.20532227 C13.59904251 46.22526749 14.49959869 46.24521271 15.42744446 46.26576233 C16.86521492 46.29083107 16.86521492 46.29083107 18.33203125 46.31640625 C19.81965218 46.3475779 19.81965218 46.3475779 21.33732605 46.37937927 C24.49564899 46.44460052 27.65405288 46.50363202 30.8125 46.5625 C32.95769056 46.60571131 35.10287302 46.64932643 37.24804688 46.69335938 C42.49861311 46.80025372 47.74925932 46.90207037 53 47 C53.495 48.98 53.495 48.98 54 51 C53.01 51.495 53.01 51.495 52 52 C52 50.68 52 49.36 52 48 C51.43259094 48.00444122 50.86518188 48.00888245 50.28057861 48.01345825 C44.3758801 48.05769954 38.47122868 48.08786975 32.56640625 48.10986328 C30.36261075 48.11992183 28.1588286 48.13357026 25.95507812 48.15087891 C22.78772691 48.1751334 19.62055213 48.1864846 16.453125 48.1953125 C15.46757629 48.20563507 14.48202759 48.21595764 13.46661377 48.22659302 C12.5459613 48.22674408 11.62530884 48.22689514 10.67675781 48.22705078 C9.46430389 48.23371262 9.46430389 48.23371262 8.22735596 48.24050903 C5.66160721 47.96346048 4.1407896 47.44355538 2 46 C0.14085083 43.20836093 -0.24702252 41.00573864 -0.22705078 37.69042969 C-0.22689972 36.84986023 -0.22674866 36.00929077 -0.22659302 35.14324951 C-0.21627045 34.24519592 -0.20594788 33.34714233 -0.1953125 32.421875 C-0.1924826 31.4953009 -0.18965271 30.56872681 -0.18673706 29.61407471 C-0.17555611 26.65925091 -0.15045527 23.70473195 -0.125 20.75 C-0.11496751 18.74479605 -0.10584213 16.73958734 -0.09765625 14.734375 C-0.07562358 9.82279949 -0.04110795 4.91145141 0 0 Z " fill="#AB2BEC" transform="translate(184,300)"/>
<path d="M0 0 C0 0.66 0 1.32 0 2 C-0.99 2 -1.98 2 -3 2 C-3 2.99 -3 3.98 -3 5 C12.51 5 28.02 5 44 5 C44 5.66 44 6.32 44 7 C27.5 7 11 7 -6 7 C-5.67 5.35 -5.34 3.7 -5 2 C-2 0 -2 0 0 0 Z " fill="#2BC5F4" transform="translate(292,145)"/>
<path d="M0 0 C0.66 0 1.32 0 2 0 C2 0.99 2 1.98 2 3 C2.99 3.33 3.98 3.66 5 4 C4.01 4 3.02 4 2 4 C1.814375 4.9590625 1.814375 4.9590625 1.625 5.9375 C1.41875 6.618125 1.2125 7.29875 1 8 C-2.23464083 9.61732041 -5.74708451 8.99875197 -9.2890625 8.87890625 C-10.10748627 8.85529526 -10.92591003 8.83168427 -11.76913452 8.80735779 C-14.3879306 8.73067056 -17.00643471 8.64666817 -19.625 8.5625 C-21.39842312 8.50928437 -23.17186058 8.45654393 -24.9453125 8.40429688 C-29.29706054 8.2750486 -33.64856061 8.13923848 -38 8 C-38.33 7.34 -38.66 6.68 -39 6 C-26.13 6 -13.26 6 0 6 C0 4.02 0 2.04 0 0 Z " fill="#5A5DE3" transform="translate(379,290)"/>
<path d="M0 0 C0.99 0.33 1.98 0.66 3 1 C4.48844716 1.08650584 5.98048257 1.11770173 7.47143555 1.11352539 C8.37214279 1.11344986 9.27285004 1.11337433 10.20085144 1.11329651 C11.65410576 1.10555458 11.65410576 1.10555458 13.13671875 1.09765625 C14.13129593 1.0962413 15.12587311 1.09482635 16.15058899 1.09336853 C19.32958982 1.08776761 22.50852043 1.07521496 25.6875 1.0625 C27.84179586 1.05748512 29.99609282 1.05292219 32.15039062 1.04882812 C37.43361774 1.03779788 42.71680385 1.02105886 48 1 C48.495 2.485 48.495 2.485 49 4 C42.50396012 4.10129515 36.00812332 4.17142075 29.51147461 4.21972656 C27.30078521 4.23986064 25.09014918 4.26717015 22.87963867 4.30175781 C19.70478154 4.35019629 16.53062752 4.37295072 13.35546875 4.390625 C12.36475876 4.41127014 11.37404877 4.43191528 10.35331726 4.45318604 C9.43258926 4.45348816 8.51186127 4.45379028 7.56323242 4.45410156 C6.34744759 4.46742523 6.34744759 4.46742523 5.10710144 4.48101807 C3 4 3 4 1.21479797 1.97161865 C0.81391464 1.3209845 0.41303131 0.67035034 0 0 Z " fill="#9533ED" transform="translate(78,344)"/>
<path d="M0 0 C0 0.99 0 1.98 0 3 C-13.2 3 -26.4 3 -40 3 C-40 4.98 -40 6.96 -40 9 C-40.33 9 -40.66 9 -41 9 C-41 6.36 -41 3.72 -41 1 C-36.4468259 0.85598978 -31.89360399 0.71363603 -27.34033203 0.57275391 C-25.7944197 0.52469613 -24.24852087 0.47620183 -22.70263672 0.42724609 C-20.46845942 0.35657167 -18.23423674 0.28751687 -16 0.21875 C-14.97918335 0.18593933 -14.97918335 0.18593933 -13.93774414 0.15246582 C-9.28897839 0.01146517 -4.65019874 -0.01816484 0 0 Z " fill="#9135EB" transform="translate(184,297)"/>
<path d="M0 0 C0.33 0.99 0.66 1.98 1 3 C1.66 3 2.32 3 3 3 C2.67 15.87 2.34 28.74 2 42 C1.34 42 0.68 42 0 42 C-0.16721165 36.17944212 -0.32781152 30.35875454 -0.48217773 24.5378418 C-0.53567894 22.55602051 -0.5910143 20.57424788 -0.64819336 18.5925293 C-0.72987855 15.75059507 -0.80505172 12.90855338 -0.87890625 10.06640625 C-0.90594131 9.17474258 -0.93297638 8.28307892 -0.96083069 7.36439514 C-1.01275915 5.24352554 -1.01188911 3.12147191 -1 1 C-0.67 0.67 -0.34 0.34 0 0 Z " fill="#873AE6" transform="translate(379,247)"/>
<path d="M0 0 C-0.77904328 10.55808656 -0.77904328 10.55808656 -3 15 C-3.99 15 -4.98 15 -6 15 C-6.12375 15.721875 -6.2475 16.44375 -6.375 17.1875 C-6.9904931 19.95721894 -7.88444374 22.3970354 -9 25 C-10.46741651 20.35501506 -9.17849997 17.03281118 -7.8125 12.5 C-7.60302734 11.74074219 -7.39355469 10.98148438 -7.17773438 10.19921875 C-4.16798243 0 -4.16798243 0 0 0 Z " fill="#EC12EE" transform="translate(81,231)"/>
<path d="M0 0 C2.31 0 4.62 0 7 0 C7.33 3.3 7.66 6.6 8 10 C7.34 10 6.68 10 6 10 C4.5216774 7.04335481 4.93967217 4.25770263 5 1 C3.68 1 2.36 1 1 1 C1 13.54 1 26.08 1 39 C1.99 39.33 2.98 39.66 4 40 C2.02 40.495 2.02 40.495 0 41 C0 27.47 0 13.94 0 0 Z " fill="#31E4FC" transform="translate(136,300)"/>
<path d="M0 0 C0.33 0.66 0.66 1.32 1 2 C25.255 2.495 25.255 2.495 50 3 C50.495 6.465 50.495 6.465 51 10 C50.22962402 9.18958252 49.45924805 8.37916504 48.66552734 7.54418945 C44.3022943 3.93194467 39.80413342 4.27098099 34.3515625 4.29296875 C33.33903412 4.27784744 32.32650574 4.26272614 31.28329468 4.24714661 C28.06363579 4.20431373 24.84491527 4.19543556 21.625 4.1875 C19.43617305 4.16435237 17.24736835 4.13898649 15.05859375 4.11132812 C9.70572022 4.04851968 4.35321272 4.01355038 -1 4 C-0.67 2.68 -0.34 1.36 0 0 Z " fill="#2AE1FB" transform="translate(387,238)"/>
<path d="M0 0 C2.15769762 6.47309285 -1.54264349 15.8074616 -4 22 C-4.66 22.33 -5.32 22.66 -6 23 C-7.68793363 14.56033187 -4.64257021 8.49013355 -1 1 C-0.67 0.67 -0.34 0.34 0 0 Z " fill="#D514F7" transform="translate(94,195)"/>
<path d="M0 0 C0.33 0 0.66 0 1 0 C1 9.9 1 19.8 1 30 C1.99 30 2.98 30 4 30 C4 30.66 4 31.32 4 32 C4.99 32 5.98 32 7 32 C7 32.66 7 33.32 7 34 C6.21625 34.28875 5.4325 34.5775 4.625 34.875 C1.90328368 35.84912254 1.90328368 35.84912254 0 38 C0 25.46 0 12.92 0 0 Z " fill="#F604F6" transform="translate(178,310)"/>
<path d="M0 0 C0.33 0 0.66 0 1 0 C1.67090715 7.24579719 -0.41874318 11.75838097 -4 18 C-5.231394 15.53721199 -5.07159196 13.7204945 -5 11 C-5.66 11 -6.32 11 -7 11 C-6.67 9.35 -6.34 7.7 -6 6 C-4.68 6 -3.36 6 -2 6 C-2 5.01 -2 4.02 -2 3 C-1.34 3 -0.68 3 0 3 C0 2.01 0 1.02 0 0 Z " fill="#D418F3" transform="translate(85,221)"/>
<path d="M0 0 C0.99 0 1.98 0 3 0 C2.71767279 2.10544013 2.4238102 4.20933589 2.125 6.3125 C1.96257812 7.48425781 1.80015625 8.65601563 1.6328125 9.86328125 C1 13 1 13 -1 16 C-1 13.69 -1 11.38 -1 9 C-1.66 9 -2.32 9 -3 9 C-3.33 10.65 -3.66 12.3 -4 14 C-4.9113287 11.47942631 -5.08517871 10.26674385 -4.2578125 7.67578125 C-3.88398438 6.89589844 -3.51015625 6.11601562 -3.125 5.3125 C-2.75632813 4.52488281 -2.38765625 3.73726562 -2.0078125 2.92578125 C-1 1 -1 1 0 0 Z " fill="#26E9F5" transform="translate(154,204)"/>
<path d="M0 0 C0.33 0 0.66 0 1 0 C1 13.2 1 26.4 1 40 C1.66 40 2.32 40 3 40 C3 41.65 3 43.3 3 45 C3.99 45.33 4.98 45.66 6 46 C4.68 46 3.36 46 2 46 C0.34380723 43.09244677 -0.24715763 41.02816577 -0.22705078 37.69042969 C-0.22689972 36.84986023 -0.22674866 36.00929077 -0.22659302 35.14324951 C-0.21627045 34.24519592 -0.20594788 33.34714233 -0.1953125 32.421875 C-0.1924826 31.4953009 -0.18965271 30.56872681 -0.18673706 29.61407471 C-0.17555611 26.65925091 -0.15045527 23.70473195 -0.125 20.75 C-0.11496751 18.74479605 -0.10584213 16.73958734 -0.09765625 14.734375 C-0.07562358 9.82279949 -0.04110795 4.91145141 0 0 Z " fill="#9931EA" transform="translate(184,300)"/>
<path d="M0 0 C0.88336837 2.4667645 1.1312406 3.63859372 0.22265625 6.140625 C-0.16019531 6.83671875 -0.54304688 7.5328125 -0.9375 8.25 C-1.31777344 8.95640625 -1.69804688 9.6628125 -2.08984375 10.390625 C-2.39019531 10.92171875 -2.69054687 11.4528125 -3 12 C-3.33 10.68 -3.66 9.36 -4 8 C-4.99 9.98 -5.98 11.96 -7 14 C-7.66 14 -8.32 14 -9 14 C-7.36058473 7.3991964 -5.64842118 3.89113459 0 0 Z " fill="#D722E5" transform="translate(110,158)"/>
<path d="M0 0 C1.18414294 3.55242882 0.69535532 4.69830562 -0.4375 8.1875 C-0.72496094 9.08855469 -1.01242188 9.98960937 -1.30859375 10.91796875 C-1.53675781 11.60503906 -1.76492187 12.29210937 -2 13 C-2.99 13 -3.98 13 -5 13 C-5 14.32 -5 15.64 -5 17 C-5.66 17 -6.32 17 -7 17 C-6.34 13.7 -5.68 10.4 -5 7 C-4.34 7 -3.68 7 -3 7 C-2.814375 6.1028125 -2.814375 6.1028125 -2.625 5.1875 C-2 3 -2 3 0 0 Z " fill="#F108F7" transform="translate(106,165)"/>
<path d="M0 0 C1.32 0 2.64 0 4 0 C3.8864371 1.64666203 3.75882619 3.29236082 3.625 4.9375 C3.55539063 5.85402344 3.48578125 6.77054688 3.4140625 7.71484375 C3.27742188 8.46894531 3.14078125 9.22304687 3 10 C2.01 10.495 2.01 10.495 1 11 C1 9.02 1 7.04 1 5 C0.60167969 5.95712891 0.60167969 5.95712891 0.1953125 6.93359375 C-0.15789062 7.75988281 -0.51109375 8.58617187 -0.875 9.4375 C-1.39707031 10.67306641 -1.39707031 10.67306641 -1.9296875 11.93359375 C-3 14 -3 14 -5 15 C-1.92482916 4.44191344 -1.92482916 4.44191344 0 0 Z " fill="#DB1FE6" transform="translate(93,191)"/>
<path d="M0 0 C0.66 0 1.32 0 2 0 C2.02696365 1.79158489 2.04637917 3.58328473 2.0625 5.375 C2.07410156 6.37273437 2.08570313 7.37046875 2.09765625 8.3984375 C2 11 2 11 1 13 C-0.32 13 -1.64 13 -3 13 C-2.68991116 11.39536551 -2.37683713 9.79130769 -2.0625 8.1875 C-1.88847656 7.29417969 -1.71445313 6.40085938 -1.53515625 5.48046875 C-1 3 -1 3 0 0 Z " fill="#12F5FA" transform="translate(151,213)"/>
<path d="M0 0 C3.43161737 2.28774492 3.55176 2.93806629 4.5625 6.75 C4.80742187 7.63945312 5.05234375 8.52890625 5.3046875 9.4453125 C5.53414062 10.28835937 5.76359375 11.13140625 6 12 C6.65629516 14.00342734 7.31760646 16.00531118 8 18 C6.140625 17.40234375 6.140625 17.40234375 4 16 C2.734375 13.06640625 2.734375 13.06640625 1.75 9.5625 C1.41484375 8.40878906 1.0796875 7.25507813 0.734375 6.06640625 C0 3 0 3 0 0 Z " fill="#DE2EDF" transform="translate(164,224)"/>
<path d="M0 0 C0.33 0 0.66 0 1 0 C1.125 5.75 1.125 5.75 0 8 C0.99 8 1.98 8 3 8 C2.45144652 12.571279 1.58255197 16.67435795 0 21 C-0.33 21 -0.66 21 -1 21 C-0.67 17.37 -0.34 13.74 0 10 C-0.66 10 -1.32 10 -2 10 C-1.54177532 6.53058454 -1.10868317 3.32604951 0 0 Z " fill="#2DE8F3" transform="translate(148,218)"/>
<path d="M0 0 C4.63929274 5.27192357 5.27818815 11.18439031 5 18 C0.95751381 13.59001506 0.08258468 8.31237105 -0.125 2.5 C-0.08375 1.675 -0.0425 0.85 0 0 Z " fill="#A62BF0" transform="translate(174,224)"/>
<path d="M0 0 C1.33332095 2.6666419 0.67102033 4.16680303 0 7 C-0.66 7 -1.32 7 -2 7 C-2.66 10.96 -3.32 14.92 -4 19 C-4.99 19 -5.98 19 -7 19 C-5.74646681 11.93463111 -3.43796251 6.28543527 0 0 Z " fill="#9B2FED" transform="translate(107,169)"/>
<path d="M0 0 C1.18771723 3.42943519 0.80226223 5.37784675 -0.4375 8.75 C-0.72496094 9.54921875 -1.01242188 10.3484375 -1.30859375 11.171875 C-1.53675781 11.77515625 -1.76492187 12.3784375 -2 13 C-2.33 13 -2.66 13 -3 13 C-3.1953125 11.01432292 -3.390625 9.02864583 -3.5859375 7.04296875 C-3.92665391 4.70011858 -3.92665391 4.70011858 -6 2 C-4.02 2 -2.04 2 0 2 C0 1.34 0 0.68 0 0 Z " fill="#595ADD" transform="translate(150,208)"/>
<path d="M0 0 C0.85712696 2.39995548 1.22584094 3.51605512 0.125 5.875 C-0.24625 6.57625 -0.6175 7.2775 -1 8 C-1.38290462 9.99110401 -1.72604615 11.99100513 -2 14 C-2.66 14 -3.32 14 -4 14 C-4.12375 14.61875 -4.2475 15.2375 -4.375 15.875 C-5 18 -5 18 -7 20 C-6.25 14.25 -6.25 14.25 -4 12 C-3.41870016 10.35344735 -2.90459447 8.68251832 -2.4375 7 C-1.0794702 2.1589404 -1.0794702 2.1589404 0 0 Z " fill="#9831EC" transform="translate(93,205)"/>
<path d="M0 0 C3.53149946 0.32104541 5.55774608 0.65085217 8.375 2.875 C10 5 10 5 10 8 C8.68 8.33 7.36 8.66 6 9 C5.67 7.02 5.34 5.04 5 3 C3.35 2.67 1.7 2.34 0 2 C0 1.34 0 0.68 0 0 Z " fill="#21F0F2" transform="translate(208,145)"/>
<path d="M0 0 C0 0.66 0 1.32 0 2 C-0.99 2 -1.98 2 -3 2 C-3 2.99 -3 3.98 -3 5 C1.29 5 5.58 5 10 5 C10 5.33 10 5.66 10 6 C5.05 6 0.1 6 -5 6 C-5.33 5.34 -5.66 4.68 -6 4 C-2.25 0 -2.25 0 0 0 Z " fill="#2AE7F5" transform="translate(292,145)"/>
<path d="M0 0 C0.33 1.65 0.66 3.3 1 5 C-1.31 5 -3.62 5 -6 5 C-5.625 3.0625 -5.625 3.0625 -5 1 C-3 0 -3 0 0 0 Z " fill="#19F3F8" transform="translate(127,145)"/>
<path d="M0 0 C0.33 0 0.66 0 1 0 C1.35050464 5.841744 1.16727335 9.8531808 -2 15 C-3.31534494 11.34142468 -2.65468309 8.91973519 -1.5625 5.25 C-1.27503906 4.26515625 -0.98757812 3.2803125 -0.69140625 2.265625 C-0.46324219 1.51796875 -0.23507813 0.7703125 0 0 Z " fill="#DD26DE" transform="translate(74,241)"/>
<path d="M0 0 C-3.6441774 2.4294516 -5.71241272 2.16179575 -10 2 C-10 2.66 -10 3.32 -10 4 C-10.66 4 -11.32 4 -12 4 C-9.17895868 -2.24659149 -6.16171872 -0.89444304 0 0 Z " fill="#6B4FCE" transform="translate(391,243)"/>
<path d="M0 0 C-0.45822468 3.46941546 -0.89131683 6.67395049 -2 10 C-2.66 10 -3.32 10 -4 10 C-3.88637738 8.5199159 -3.75877092 7.04089926 -3.625 5.5625 C-3.55539063 4.73878906 -3.48578125 3.91507813 -3.4140625 3.06640625 C-3.27742187 2.38449219 -3.14078125 1.70257813 -3 1 C-1 0 -1 0 0 0 Z " fill="#09F9FD" transform="translate(149,227)"/>
<path d="M0 0 C2.125 0.375 2.125 0.375 4 1 C2.9024777 3.99324263 2.32317108 4.84610901 -0.625 6.25 C-1.40875 6.4975 -2.1925 6.745 -3 7 C-3.33 6.34 -3.66 5.68 -4 5 C-3.01 5 -2.02 5 -1 5 C-1.33 4.01 -1.66 3.02 -2 2 C-1.34 1.34 -0.68 0.68 0 0 Z " fill="#764BCC" transform="translate(131,342)"/>
<path d="M0 0 C1.37988943 2.75977886 0.62402826 4.01978801 -0.25 6.9375 C-0.62898438 8.25041016 -0.62898438 8.25041016 -1.015625 9.58984375 C-2.01885365 12.04616152 -2.99968237 13.29748247 -5 15 C-3.97137215 9.55432314 -2.75385216 4.88182883 0 0 Z " fill="#9532EE" transform="translate(99,190)"/>
<path d="M0 0 C0.99 0.33 1.98 0.66 3 1 C1.41641358 4.16717283 0.54736301 5.73268318 -2.6875 7.3125 C-3.450625 7.539375 -4.21375 7.76625 -5 8 C-5 7.01 -5 6.02 -5 5 C-3.35 4.67 -1.7 4.34 0 4 C0 2.68 0 1.36 0 0 Z " fill="#744DC6" transform="translate(435,341)"/>
<path d="M0 0 C2 3 2 3 2 6 C1.01 6 0.02 6 -1 6 C-1.33 7.65 -1.66 9.3 -2 11 C-2.95465783 8.83032311 -3.14401212 7.43671207 -2.3984375 5.17578125 C-1.64129615 3.4315257 -0.82390802 1.71372869 0 0 Z " fill="#29E0FE" transform="translate(152,207)"/>
<path d="M0 0 C0.33 0 0.66 0 1 0 C1.36630156 3.93774177 1.30233203 5.56539771 -1 8.875 C-1.66 9.57625 -2.32 10.2775 -3 11 C-2.88590407 9.54077307 -2.75834456 8.08259402 -2.625 6.625 C-2.55539063 5.81289062 -2.48578125 5.00078125 -2.4140625 4.1640625 C-2 2 -2 2 0 0 Z " fill="#F707F7" transform="translate(90,204)"/>
<path d="M0 0 C1.25541557 3.76624671 0.37061958 5.37188934 -1 9 C-1.66 9 -2.32 9 -3 9 C-2.25 2.25 -2.25 2.25 0 0 Z " fill="#F707F8" transform="translate(94,195)"/>
<path d="M0 0 C0.33 0 0.66 0 1 0 C1.33 3.3 1.66 6.6 2 10 C1.34 10 0.68 10 0 10 C-1.36952673 7.26094655 -1.12621361 5.02912668 -1 2 C-0.67 1.34 -0.34 0.68 0 0 Z " fill="#5CC6FE" transform="translate(142,300)"/>
<path d="M0 0 C-0.33 3.3 -0.66 6.6 -1 10 C-1.99 9.34 -2.98 8.68 -4 8 C-3.74438677 5.6568787 -3.40729228 3.32156597 -3 1 C-1 0 -1 0 0 0 Z " fill="#F707FC" transform="translate(81,231)"/>
<path d="M0 0 C0.33 0.99 0.66 1.98 1 3 C-1.375 4.5625 -1.375 4.5625 -4 6 C-4.66 5.67 -5.32 5.34 -6 5 C-3.375 1.125 -3.375 1.125 0 0 Z " fill="#714FCB" transform="translate(285,151)"/>
<path d="M0 0 C0.66 0.33 1.32 0.66 2 1 C2 1.99 2 2.98 2 4 C0.35 4.66 -1.3 5.32 -3 6 C-3.33 4.68 -3.66 3.36 -4 2 C-2.68 2 -1.36 2 0 2 C0 1.34 0 0.68 0 0 Z " fill="#7A47D0" transform="translate(241,343)"/>
<path d="M0 0 C2.89932357 2.39509338 3.50168276 4.31245243 4 8 C2.68 7.34 1.36 6.68 0 6 C0 4.02 0 2.04 0 0 Z " fill="#E918E7" transform="translate(168,234)"/>
<path d="M0 0 C0.99 0 1.98 0 3 0 C2.67 2.97 2.34 5.94 2 9 C1.67 9 1.34 9 1 9 C1 7.02 1 5.04 1 3 C0.34 3 -0.32 3 -1 3 C-0.67 2.01 -0.34 1.02 0 0 Z " fill="#48CCFB" transform="translate(154,204)"/>
</svg>
